<svg width="128" height="95" viewBox="0 0 128 95" fill="none" xmlns="http://www.w3.org/2000/svg">
<path d="M1.9638 30.3484C2.30177 30.3609 2.63957 30.3194 2.96449 30.2256C3.30109 30.1346 3.73776 29.9936 4.2745 29.8117C4.74356 29.6432 5.22196 29.502 5.70731 29.3886C6.08112 29.3077 6.46671 29.2969 6.84446 29.3568C7.22937 29.4166 7.58492 29.5984 7.85881 29.8753C8.19005 30.191 8.40485 30.6094 8.46832 31.0625C8.53538 31.5549 8.47428 32.0562 8.29093 32.5181C8.07809 33.0515 7.76981 33.5417 7.3812 33.9646C7.05847 34.3227 6.70034 34.6473 6.31228 34.9334C6.03381 35.1672 5.71462 35.3476 5.37071 35.4656C5.31929 35.4706 5.26749 35.4706 5.21606 35.4656C5.16035 35.4597 5.10864 35.4339 5.0705 35.3928L3.36477 34.0282C3.33748 34.0282 3.33748 33.9737 3.36477 33.9282C3.39206 33.8827 3.42845 33.869 3.46029 33.8872C4.09255 33.9964 4.61564 34.0783 5.03412 34.1238C5.45826 34.1694 5.88704 34.1448 6.30318 34.051C6.72702 33.9641 7.11057 33.7403 7.39485 33.4142C7.64366 33.1573 7.80315 32.8272 7.84971 32.4726C7.85576 32.2854 7.81775 32.0993 7.73874 31.9295C7.65974 31.7596 7.54194 31.6107 7.39485 31.4947C7.1276 31.2328 6.78611 31.0596 6.41689 30.9989C6.0614 30.9449 5.69897 30.9572 5.34797 31.0352C4.88539 31.1464 4.42975 31.2846 3.98338 31.4492C3.433 31.6493 2.98724 31.7949 2.65064 31.904C2.31235 31.9917 1.96236 32.0254 1.61355 32.0041C1.25577 31.9791 0.915773 31.8387 0.644699 31.6038C0.46157 31.4651 0.309787 31.2892 0.19927 31.0878C0.0887523 30.8863 0.0219892 30.6638 0.00334398 30.4348C-0.0207476 29.9194 0.08564 29.4062 0.31265 28.9429C0.55327 28.415 0.875633 27.9284 1.26786 27.501C1.53658 27.2037 1.82862 26.9284 2.14119 26.6777C2.39752 26.4645 2.67314 26.2757 2.96449 26.1136C3.0316 26.0719 3.10842 26.0484 3.18738 26.0454C3.24378 26.0534 3.29627 26.0789 3.33748 26.1182L4.78849 27.5146C4.78849 27.5146 4.78849 27.5646 4.78849 27.6147C4.78849 27.6647 4.73391 27.6829 4.70661 27.6693L4.42915 27.5874C3.86735 27.4004 3.27911 27.3052 2.68703 27.3054C2.39693 27.3143 2.11229 27.3865 1.85301 27.5169C1.59373 27.6474 1.36608 27.8329 1.18598 28.0604C0.910147 28.3433 0.735797 28.7096 0.690185 29.1021C0.678627 29.2761 0.710385 29.4503 0.782618 29.6091C0.854852 29.7678 0.965309 29.9062 1.10411 30.0118C1.34286 30.2205 1.64683 30.3395 1.9638 30.3484Z" fill="#231F20"/>
<path d="M18.1525 23.6668C18.1889 23.7123 18.1935 23.7441 18.1525 23.7623C17.8796 23.967 17.6613 24.1307 17.493 24.249C17.1928 24.4764 16.8925 24.7039 16.5832 24.9358C16.2739 25.1678 15.9237 25.4862 15.6007 25.7773C15.4688 25.8956 15.2869 26.0548 15.0549 26.2322C15.0322 26.2322 15.0049 26.2322 14.9685 26.1958C14.9321 26.1594 14.9275 26.123 14.9685 26.1048C15.1771 25.9386 15.3663 25.7494 15.5325 25.5408C15.5799 25.4832 15.6135 25.4156 15.6308 25.3431C15.6481 25.2706 15.6487 25.1951 15.6326 25.1223C15.5622 24.9248 15.4523 24.7437 15.3096 24.5901L13.3037 22.1657C12.0179 23.221 10.7504 24.3278 9.50105 25.4862L11.6434 27.7969C11.7746 27.957 11.9372 28.0886 12.121 28.1836C12.1911 28.211 12.2664 28.2219 12.3413 28.2156C12.4163 28.2093 12.4887 28.1859 12.5532 28.1472C12.7848 28.0063 12.9999 27.84 13.1945 27.6514C13.1945 27.6514 13.2355 27.6514 13.2718 27.6923C13.3082 27.7332 13.3219 27.7605 13.3037 27.7742C13.049 28.0062 12.8488 28.1881 12.6805 28.3246C12.3621 28.6096 12.0437 28.9007 11.7253 29.1979C11.457 29.4617 11.1931 29.721 10.9293 29.9894C10.7929 30.1349 10.6018 30.3305 10.3516 30.5761C10.3516 30.5761 10.3107 30.5761 10.2743 30.5397C10.2379 30.5034 10.2243 30.4761 10.2379 30.4624C10.4257 30.2853 10.5921 30.0869 10.7337 29.8711C10.7735 29.8098 10.7987 29.7402 10.8074 29.6677C10.8161 29.5951 10.808 29.5216 10.7838 29.4526C10.6988 29.2621 10.5767 29.0904 10.4244 28.9477L6.01226 24.3991C5.87944 24.2428 5.71308 24.1184 5.52555 24.0352C5.45008 24.0109 5.37014 24.0035 5.29149 24.0137C5.21284 24.024 5.13743 24.0515 5.07069 24.0944C4.83448 24.241 4.61881 24.4185 4.42934 24.622C4.42934 24.6447 4.37475 24.622 4.33837 24.622C4.30198 24.622 4.29288 24.5492 4.31562 24.5265L4.96607 23.9033C5.34361 23.5576 5.64382 23.2801 5.8758 23.0664C6.18056 22.7798 6.5308 22.4387 6.92653 22.052L7.59063 21.3925C7.59063 21.3925 7.63611 21.3925 7.6725 21.4334C7.70889 21.4743 7.71799 21.5016 7.70434 21.5153C7.47764 21.7046 7.27724 21.9234 7.10847 22.1657C7.06319 22.2314 7.03177 22.3056 7.01613 22.3838C7.00049 22.462 7.00096 22.5426 7.0175 22.6206C7.08723 22.8165 7.20081 22.9938 7.34955 23.1391L9.24177 25.1815C10.4881 24.0231 11.7617 22.9117 13.0626 21.8473L11.3068 19.7095C11.1882 19.5403 11.0326 19.4004 10.852 19.3001C10.7805 19.268 10.703 19.2514 10.6246 19.2514C10.5462 19.2514 10.4686 19.268 10.3971 19.3001C10.1321 19.4359 9.88592 19.6056 9.6648 19.805C9.64205 19.8277 9.61021 19.805 9.57382 19.7732C9.53744 19.7413 9.53289 19.7004 9.57382 19.6776L10.197 19.1727C10.6291 18.8407 11.0157 18.5359 11.3569 18.263C11.5889 18.0765 11.9073 17.8082 12.3257 17.4625L13.0444 16.8984C13.0444 16.8984 13.099 16.8984 13.1308 16.9348C13.1627 16.9712 13.1672 17.0076 13.1308 17.0303C12.9066 17.1909 12.7034 17.3788 12.5259 17.5898C12.4755 17.6477 12.4387 17.7162 12.4182 17.7902C12.3978 17.8642 12.3941 17.9418 12.4076 18.0174C12.4714 18.2129 12.5735 18.3939 12.7078 18.5496L16.606 23.5531C16.7278 23.7318 16.8821 23.8861 17.0608 24.0079C17.1249 24.0407 17.1959 24.0577 17.2678 24.0577C17.3398 24.0577 17.4107 24.0407 17.4748 24.0079C17.7028 23.9013 17.9167 23.7669 18.1116 23.6076C18.0934 23.6076 18.1207 23.6213 18.1525 23.6668Z" fill="#231F20"/>
<path d="M27.2632 17.7536C27.2632 17.8036 27.2632 17.8354 27.2632 17.8582C27.0949 17.9537 26.8083 18.0856 26.4717 18.2675C26.1351 18.4495 25.8304 18.6041 25.6757 18.6951C25.521 18.7861 25.2208 18.9726 24.9343 19.15C24.6477 19.3274 24.4476 19.4729 24.2838 19.573C24.2474 19.573 24.2201 19.573 24.1883 19.5366C24.1565 19.5002 24.1883 19.4547 24.1883 19.432C24.3508 19.3478 24.4946 19.2318 24.6113 19.0908C24.6434 19.0439 24.6606 18.9885 24.6606 18.9316C24.6606 18.8748 24.6434 18.8193 24.6113 18.7724C24.4317 18.5574 24.2105 18.381 23.9609 18.2539C23.0511 17.7172 22.1096 17.1895 21.1635 16.6801C20.3993 17.1804 19.6412 17.6899 18.8892 18.2084C18.9938 19.0044 19.1075 19.8004 19.2303 20.5873C19.2639 20.8435 19.354 21.089 19.4941 21.306C19.5756 21.4314 19.6867 21.5347 19.8176 21.6069C19.9485 21.6791 20.0952 21.7179 20.2447 21.7199C20.5972 21.7128 20.9382 21.5933 21.2181 21.3788C21.2575 21.3515 21.2939 21.3606 21.3272 21.4061C21.335 21.4129 21.3412 21.4213 21.3454 21.4307C21.3497 21.4401 21.3519 21.4504 21.3519 21.4607C21.3519 21.471 21.3497 21.4812 21.3454 21.4906C21.3412 21.5 21.335 21.5084 21.3272 21.5153C21.1817 21.6153 20.9679 21.7472 20.6859 21.9201C20.4039 22.0929 20.1082 22.2931 19.8899 22.4477C19.6715 22.6024 19.435 22.7934 19.1348 23.0254C18.8346 23.2574 18.6799 23.4029 18.5071 23.5257C18.4798 23.5485 18.4434 23.5257 18.4116 23.4939C18.3797 23.4621 18.3797 23.4166 18.4116 23.3938C18.6054 23.2555 18.7618 23.071 18.8664 22.8571C18.9603 22.6075 19.0006 22.3409 18.9847 22.0747C18.9644 21.6169 18.9128 21.1609 18.83 20.7102C18.454 18.3024 18.1614 15.8674 17.9521 13.4051C17.9521 13.3732 17.9885 13.3323 18.0522 13.2959C18.1159 13.2595 18.175 13.2322 18.1978 13.2504C20.5418 14.4149 22.8055 15.6673 24.9889 17.0076C25.4263 17.3055 25.8945 17.5556 26.3853 17.7536C26.5082 17.8093 26.6415 17.8382 26.7765 17.8382C26.9114 17.8382 27.0448 17.8093 27.1676 17.7536C27.1995 17.7081 27.2359 17.7172 27.2632 17.7536ZM18.8391 17.7536C19.4759 17.3169 20.1203 16.8939 20.7723 16.4845C20.0415 16.1176 19.3031 15.74 18.5571 15.3519C18.6526 16.157 18.7345 16.9621 18.8391 17.7536Z" fill="#231F20"/>
<path d="M30.3972 16.2477L29.8832 16.4751C29.6785 16.5661 29.4283 16.6707 29.2054 16.798L28.2957 17.2984C28.132 17.3939 27.9045 17.5213 27.618 17.6759C27.618 17.6759 27.5816 17.6759 27.5543 17.6168C27.527 17.5577 27.527 17.5395 27.5543 17.5304C27.7579 17.4295 27.9475 17.3026 28.1183 17.1528C28.167 17.1046 28.2041 17.046 28.2269 16.9814C28.2498 16.9168 28.2577 16.8479 28.2502 16.7798C28.2169 16.576 28.146 16.3801 28.041 16.2022L25.0616 10.5801C24.9748 10.3946 24.8527 10.2278 24.7023 10.0888C24.6452 10.0458 24.5794 10.0158 24.5094 10.0009C24.4395 9.98597 24.3672 9.98648 24.2975 10.0024C24.061 10.0601 23.8342 10.1521 23.6243 10.2753C23.597 10.2753 23.5697 10.2753 23.5424 10.2253C23.5151 10.1753 23.5424 10.148 23.5424 10.1298L24.2929 9.74314C24.7478 9.5339 25.0798 9.3656 25.3346 9.23369C25.7212 9.0381 26.1124 8.82431 26.5081 8.60143C26.9948 8.34216 27.3223 8.17386 27.4952 8.09199C28.3679 7.65931 29.3276 7.43067 30.3016 7.42334C31.121 7.41092 31.9264 7.63519 32.6214 8.06924C33.2604 8.48173 33.7512 9.08722 34.0224 9.79772C34.3399 10.5641 34.4329 11.4049 34.2908 12.2221C34.1509 13.0022 33.8108 13.7326 33.3037 14.3418C32.7865 14.9741 32.1314 15.4797 31.3888 15.8201C31.1159 15.9338 30.7838 16.0885 30.3972 16.2477ZM32.4077 14.5146C32.724 14.0205 32.8913 13.4457 32.8898 12.8589C32.8881 12.1401 32.733 11.4298 32.435 10.7757C32.1655 10.1025 31.7598 9.49234 31.2432 8.98352C30.7907 8.52678 30.2157 8.21082 29.5875 8.07379C28.9727 7.94232 28.3316 8.02247 27.7681 8.30122C27.3449 8.46892 26.9586 8.71769 26.6309 9.03355C26.5497 9.14866 26.506 9.28611 26.506 9.42701C26.506 9.56791 26.5497 9.70535 26.6309 9.82046L29.3601 15.3379C29.4111 15.4738 29.4939 15.5954 29.6015 15.6927C29.7091 15.7901 29.8384 15.8602 29.9787 15.8974C30.3802 15.909 30.7765 15.8048 31.1204 15.5972C31.6435 15.3657 32.0899 14.9903 32.4077 14.5146Z" fill="#231F20"/>
<path d="M42.3875 9.31129C42.4146 9.30671 42.4423 9.30671 42.4694 9.31129C42.4967 9.31129 42.5103 9.31129 42.5149 9.31129C42.6014 9.9563 42.7321 10.5946 42.9061 11.2217C42.9273 11.2742 42.9273 11.3329 42.9061 11.3855C42.9061 11.4264 42.8424 11.4537 42.7605 11.4764C40.7682 12.0465 38.7972 12.697 36.8473 13.4278C36.82 13.4278 36.7973 13.4278 36.7791 13.3687C36.7609 13.3095 36.7791 13.2868 36.7791 13.2731C36.9907 13.2052 37.1913 13.1072 37.375 12.982C37.4266 12.9402 37.4684 12.8876 37.4974 12.8278C37.5265 12.7681 37.5421 12.7027 37.5433 12.6363C37.5254 12.4319 37.4779 12.2312 37.4022 12.0405C36.6805 10.0542 35.9588 8.06649 35.2371 6.07722C35.1776 5.88084 35.0819 5.69727 34.9551 5.53594C34.9067 5.48288 34.8465 5.44203 34.7793 5.41673C34.7121 5.39144 34.6398 5.3824 34.5685 5.39038C34.3275 5.41744 34.0916 5.47871 33.868 5.57233C33.8361 5.57233 33.8134 5.57233 33.7952 5.51319C33.777 5.45406 33.7952 5.43132 33.7952 5.41767C35.8739 4.63531 37.9845 3.93482 40.1087 3.32531C40.2087 3.29347 40.2724 3.32531 40.2952 3.39809L40.8274 5.14021C40.8274 5.14021 40.8274 5.18115 40.7591 5.20389C40.6909 5.22663 40.6727 5.20389 40.6545 5.20389C40.3996 4.77348 39.9972 4.45022 39.5219 4.29417C38.9907 4.16492 38.4329 4.19819 37.9208 4.38969L37.4659 4.53524C37.2294 4.59055 37.019 4.72544 36.8701 4.91733C36.8198 5.00695 36.7911 5.10709 36.7864 5.20975C36.7816 5.31242 36.8009 5.41477 36.8428 5.50865C37.146 6.38501 37.4493 7.26593 37.7525 8.15139L38.9306 7.76476C39.3777 7.65048 39.788 7.42339 40.1223 7.10521C40.2371 6.99573 40.3191 6.8565 40.3593 6.70308C40.3994 6.54965 40.3961 6.38808 40.3498 6.23643C40.3498 6.23643 40.3498 6.19094 40.418 6.17729C40.4862 6.16365 40.4999 6.17729 40.509 6.17729C40.6181 6.57302 40.7318 6.96875 40.8456 7.36448C40.9092 7.57372 40.9775 7.78296 41.0457 7.99219C41.1503 8.2833 41.2322 8.51528 41.2822 8.69268C41.2822 8.69268 41.2595 8.72452 41.2049 8.74271C41.1503 8.76091 41.1185 8.74271 41.1139 8.74271C41.0684 8.57349 40.9801 8.41886 40.8573 8.29376C40.7346 8.16867 40.5817 8.07733 40.4134 8.02858C39.9598 7.9208 39.4842 7.95251 39.0488 8.11955L37.889 8.50164L38.8851 11.4355C38.9374 11.638 39.0579 11.8163 39.2262 11.9404C39.3058 11.9862 39.3951 12.0126 39.4868 12.0173C39.5785 12.0221 39.67 12.0051 39.7539 11.9677L40.2087 11.8221C40.8016 11.6758 41.3419 11.367 41.7689 10.9306C42.1267 10.4827 42.328 9.9299 42.342 9.35678C42.342 9.35678 42.3511 9.32494 42.3875 9.31129Z" fill="#231F20"/>
<path d="M44.8754 4.44848C45.1217 4.65761 45.3996 4.82647 45.6987 4.94882C46.0034 5.07618 46.4128 5.22629 46.9177 5.40369C47.3609 5.55337 47.7952 5.72801 48.2186 5.92678C48.561 6.08091 48.87 6.3003 49.1283 6.57268C49.3911 6.85615 49.565 7.21036 49.6287 7.59157C49.7139 8.0365 49.6549 8.49701 49.4604 8.90612C49.2561 9.33231 48.9421 9.69652 48.5507 9.9614C48.1144 10.2656 47.6207 10.4776 47.0997 10.5846C46.6647 10.6773 46.2206 10.72 45.776 10.7119C45.4394 10.7299 45.1026 10.682 44.7844 10.5709C44.739 10.5503 44.6963 10.5244 44.657 10.4936C44.6173 10.4564 44.5916 10.4066 44.5843 10.3526L43.9975 8.25112C43.9975 8.21473 43.9975 8.18744 44.0566 8.16924C44.1158 8.15105 44.134 8.16924 44.1521 8.19654C44.5706 8.66656 44.9254 9.0441 45.2165 9.32914C45.51 9.61641 45.8479 9.85448 46.2172 10.0342C46.5781 10.2173 46.9915 10.2688 47.3862 10.1797C47.7117 10.1286 48.0101 9.96815 48.2323 9.72487C48.3373 9.57182 48.4066 9.39709 48.4349 9.21362C48.4633 9.03016 48.45 8.84267 48.396 8.66504C48.3309 8.29913 48.162 7.95965 47.9093 7.68709C47.6715 7.43353 47.3894 7.22544 47.0769 7.07303C46.6635 6.88539 46.2398 6.72137 45.8078 6.58178C45.2848 6.40893 44.8663 6.25883 44.5661 6.12692C44.2597 5.99278 43.9771 5.80999 43.7291 5.58563C43.4647 5.34324 43.2806 5.02583 43.2015 4.67591C43.0788 4.23889 43.1345 3.77108 43.3561 3.375C43.5978 2.95642 43.9463 2.60951 44.3659 2.36976C44.8272 2.09787 45.3295 1.90276 45.8533 1.79208C46.2174 1.71655 46.5871 1.67091 46.9586 1.65562C47.2624 1.64063 47.5668 1.65281 47.8684 1.69201C47.943 1.69937 48.014 1.72776 48.0731 1.77389C48.1155 1.81157 48.1429 1.86322 48.1504 1.91944L48.5188 3.89809C48.5188 3.92538 48.5188 3.95268 48.4551 3.97542C48.3915 3.99816 48.3778 3.97542 48.3642 3.97542C48.3505 3.97542 48.2505 3.82077 48.1959 3.73889C47.874 3.26229 47.4831 2.83613 47.036 2.47438C46.8181 2.30983 46.5651 2.19793 46.2969 2.14743C46.0286 2.09692 45.7522 2.10919 45.4894 2.18326C45.1337 2.24711 44.8118 2.43385 44.5797 2.7109C44.4794 2.84349 44.4109 2.99731 44.3793 3.16054C44.3478 3.32377 44.3541 3.49206 44.3978 3.65247C44.4668 3.96245 44.6343 4.24173 44.8754 4.44848Z" fill="#231F20"/>
<path d="M56.7244 8.48787C56.0277 8.16349 55.4273 7.66345 54.9823 7.03686C54.5285 6.40353 54.2451 5.66426 54.159 4.88991C54.0315 4.02614 54.2084 3.1449 54.6594 2.39727C55.1213 1.66615 55.7782 1.07854 56.5561 0.700637C57.3487 0.298263 58.216 0.0644044 59.1034 0.0137957C60.0055 -0.0531508 60.9091 0.124413 61.7188 0.527789C62.4288 0.884894 63.0221 1.43719 63.4291 2.11981C63.8073 2.76339 64.0038 3.49754 63.9977 4.24401C63.9879 5.05439 63.7429 5.84448 63.2926 6.51832C62.8289 7.21269 62.2048 7.78525 61.4732 8.18766C60.7332 8.60504 59.9064 8.84484 59.0579 8.88815C58.2588 8.95347 57.4561 8.81578 56.7244 8.48787ZM60.9092 8.03301C61.3408 7.68763 61.6709 7.23179 61.8644 6.71391C62.1053 6.05617 62.2165 5.35798 62.1919 4.65793C62.1952 3.88721 62.0404 3.12399 61.737 2.41547C61.47 1.79277 61.0234 1.26383 60.4543 0.896227C59.8723 0.54048 59.1915 0.381031 58.512 0.441366C58.1003 0.436017 57.6934 0.530948 57.3264 0.717968C56.9595 0.904988 56.6436 1.17848 56.406 1.51484C55.9312 2.32198 55.7527 3.26939 55.9011 4.19397C55.9684 5.00447 56.1892 5.79479 56.5516 6.52287C56.8453 7.13362 57.2861 7.6619 57.8343 8.0603C58.3199 8.40619 58.9082 8.57772 59.5036 8.547C60.0131 8.52837 60.5043 8.35194 60.9092 8.0421V8.03301Z" fill="#231F20"/>
<path d="M71.9852 2.45165C71.9852 2.45165 71.9579 2.47894 71.8988 2.48349C71.8397 2.48804 71.8124 2.48349 71.8033 2.4471C71.7293 1.95664 71.4785 1.51015 71.0982 1.19168C70.6586 0.87856 70.1366 0.701419 69.5972 0.682236L69.1423 0.650396C68.9045 0.616747 68.6624 0.664861 68.4555 0.786854C68.3749 0.849681 68.3103 0.930603 68.2668 1.02306C68.2234 1.11552 68.2023 1.21692 68.2053 1.31904C68.1507 2.30609 68.0916 3.28859 68.037 4.2711L69.0968 4.33932C69.549 4.40039 70.0092 4.33914 70.4296 4.16193C70.5747 4.09961 70.7001 3.99893 70.7922 3.8707C70.8844 3.74247 70.9399 3.59154 70.9527 3.43415C70.9527 3.43415 70.9845 3.43415 71.0436 3.43415C71.1028 3.43415 71.1346 3.43415 71.1301 3.47054C71.0891 3.87991 71.0437 4.29384 70.9982 4.70776C70.9709 4.99887 70.9572 5.21721 70.9527 5.36276C70.9527 5.60384 70.9163 5.84492 70.8935 6.08599C70.8935 6.11329 70.8617 6.12693 70.8071 6.12238C70.7525 6.11783 70.7207 6.09964 70.7207 6.07235C70.7416 5.90103 70.7178 5.72722 70.6516 5.56782C70.5855 5.40842 70.4792 5.26883 70.3432 5.16262C69.967 4.8941 69.518 4.74655 69.0559 4.7396L68.0143 4.67592C67.9597 5.64933 67.9006 6.62728 67.846 7.60068C67.8191 7.81608 67.8457 8.03477 67.9233 8.23749C67.9642 8.31452 68.0211 8.38194 68.0901 8.43528C68.1591 8.48861 68.2387 8.52663 68.3236 8.54679C68.6366 8.63364 68.9587 8.68401 69.2833 8.6969C69.2833 8.6969 69.2833 8.72874 69.2833 8.78332C69.2833 8.83791 69.2833 8.8652 69.2515 8.86065C68.8694 8.83336 68.5738 8.81062 68.3418 8.78332L66.9226 8.69235L65.8901 8.65596C65.7036 8.65596 65.4352 8.65596 65.1259 8.65596C65.0941 8.65596 65.085 8.62412 65.085 8.56954C65.085 8.51495 65.085 8.48766 65.1259 8.48766C65.3664 8.50431 65.6081 8.48902 65.8446 8.44218C65.9126 8.42568 65.9759 8.39369 66.0296 8.34873C66.0832 8.30375 66.1258 8.24701 66.1539 8.18291C66.2218 7.98852 66.2557 7.78385 66.254 7.57794L66.4859 1.24172C66.5006 1.03277 66.4759 0.822939 66.4132 0.623104C66.3882 0.556638 66.3481 0.496926 66.296 0.448746C66.2438 0.400566 66.1812 0.365255 66.1129 0.345639C65.8827 0.277626 65.6434 0.245409 65.4034 0.250118C65.3715 0.250118 65.3579 0.222826 65.3579 0.168242C65.3579 0.113659 65.3579 0.0818187 65.4079 0.0863673C67.6034 0.137918 69.7958 0.274377 71.9852 0.495743C72.0898 0.495743 72.1399 0.554875 72.1308 0.63675L71.9852 2.45165Z" fill="#231F20"/>
<path d="M78.2395 9.66138C77.5927 9.1817 77.0881 8.53562 76.7794 7.7919C76.4874 7.07144 76.4023 6.28378 76.5337 5.51759C76.6613 4.68258 77.0592 3.91243 77.6664 3.32516C78.3201 2.71203 79.1364 2.29991 80.018 2.13797C81.036 1.94391 82.0843 1.97652 83.0883 2.23349C83.571 2.34794 84.044 2.50002 84.5029 2.68835C84.888 2.83544 85.2556 3.0246 85.5991 3.25238C85.6626 3.28316 85.7139 3.33444 85.7447 3.39794C85.7606 3.47138 85.7606 3.54737 85.7447 3.62082C85.6401 4.24853 85.5309 4.87624 85.4263 5.5085C85.4263 5.5085 85.3899 5.54488 85.3353 5.54034C85.3147 5.54099 85.2944 5.53459 85.2779 5.52219C85.2613 5.50979 85.2495 5.49212 85.2443 5.47211C85.1126 4.72139 84.7573 4.02793 84.2249 3.48253C83.6925 2.93713 83.0078 2.5652 82.2604 2.41544C81.8285 2.28575 81.3721 2.25935 80.9281 2.33836C80.4841 2.41736 80.0648 2.59957 79.7041 2.8703C78.9841 3.50059 78.5197 4.37272 78.3987 5.322C78.2316 6.13783 78.2409 6.97996 78.426 7.7919C78.5854 8.49444 78.9275 9.14245 79.4176 9.67048C79.8848 10.1647 80.4878 10.5097 81.1506 10.6621C81.4464 10.7441 81.7541 10.7749 82.0603 10.7531C82.1728 10.737 82.2808 10.6975 82.3771 10.6372C82.4735 10.5768 82.5562 10.497 82.6198 10.4028C82.8109 10.0997 82.9479 9.76574 83.0246 9.41576C83.1223 9.09675 83.1788 8.76658 83.1929 8.43326C83.1899 8.34102 83.1638 8.25102 83.1169 8.17153C83.07 8.09205 83.0038 8.02563 82.9246 7.9784C82.6385 7.82642 82.3321 7.71614 82.0148 7.6509C81.9602 7.6509 81.9375 7.59631 81.9557 7.52353C81.9603 7.49645 81.9749 7.47209 81.9966 7.45531C82.0029 7.44706 82.0113 7.44061 82.0209 7.43662C82.0305 7.43263 82.0409 7.43123 82.0512 7.43256C82.8518 7.67364 83.4931 7.86468 83.9844 7.99659C84.4756 8.1285 84.9669 8.25131 85.4945 8.37413C85.5049 8.3778 85.514 8.38456 85.5205 8.39349C85.527 8.40242 85.5306 8.41312 85.5309 8.42416C85.5375 8.44487 85.5375 8.46713 85.5309 8.48784C85.5309 8.54697 85.4809 8.57427 85.4354 8.56062C85.3758 8.53496 85.3115 8.52173 85.2466 8.52173C85.1817 8.52173 85.1175 8.53496 85.0579 8.56062C84.9423 8.65259 84.858 8.77813 84.8168 8.91996C84.744 9.11555 84.6348 9.46579 84.4893 9.97524C84.4003 10.254 84.3363 10.5402 84.2982 10.8304C84.2904 10.9419 84.2752 11.0529 84.2527 11.1624C84.2494 11.1819 84.242 11.2005 84.2311 11.217C84.2201 11.2334 84.2058 11.2474 84.1891 11.2579C84.1423 11.2644 84.0948 11.2644 84.0481 11.2579C82.9535 11.194 81.8659 11.0419 80.7958 10.8031C79.8706 10.6134 78.9982 10.2238 78.2395 9.66138Z" fill="#231F20"/>
<path d="M94.4148 15.1696C94.392 15.2197 94.3738 15.2424 94.3556 15.2333C93.5884 14.8876 92.8152 14.5556 92.0358 14.2372C91.8448 14.1598 91.631 13.664 91.3763 12.7543C91.1216 11.8446 90.8395 10.6119 90.5211 9.05174C90.4438 9.05174 90.3346 8.99715 90.1936 8.94712C89.8297 8.81976 89.575 8.72424 89.4249 8.6651L88.3878 11.6717C88.3087 11.8709 88.2611 12.0811 88.2468 12.2949C88.2503 12.3605 88.268 12.4245 88.2986 12.4826C88.3293 12.5407 88.3721 12.5915 88.4242 12.6315C88.6087 12.7529 88.8093 12.8478 89.0201 12.9135C89.0201 12.9135 89.0201 12.9499 89.0201 12.9999C89.0201 13.05 88.9837 13.0773 88.9655 13.0682L88.2468 12.7952L87.237 12.4359L86.2545 12.1312C86.0726 12.0811 85.827 12.0129 85.5222 11.9174C85.4949 11.9174 85.4904 11.881 85.5222 11.8264C85.554 11.7718 85.5586 11.7536 85.5859 11.7627C85.794 11.836 86.0115 11.8789 86.2318 11.8901C86.299 11.8896 86.3652 11.8743 86.4258 11.8452C86.4864 11.8161 86.5397 11.774 86.582 11.7218C86.7008 11.5531 86.79 11.3654 86.8459 11.1668C87.4918 9.15332 88.1407 7.1398 88.7927 5.12628C88.8629 4.93536 88.8998 4.73381 88.9018 4.53041C88.8956 4.45895 88.8726 4.38997 88.8347 4.3291C88.7967 4.26823 88.7449 4.2172 88.6835 4.18017C88.4777 4.05198 88.2539 3.95538 88.0194 3.8936C88.0194 3.8936 88.0194 3.86176 88.0194 3.80718C88.0194 3.7526 88.0558 3.7344 88.074 3.73895L88.8609 3.99822C89.3158 4.16197 89.6751 4.28933 89.9435 4.37576C90.2118 4.46218 90.553 4.5668 90.9078 4.66232L91.3626 4.78058C91.54 4.83517 91.7447 4.9034 91.9812 4.98982C92.7243 5.21089 93.3928 5.63085 93.9144 6.2043C94.0935 6.40165 94.2126 6.64598 94.2577 6.90863C94.3028 7.17128 94.2721 7.44135 94.1691 7.68715C93.9935 8.09656 93.6883 8.43695 93.3003 8.65601C92.8836 8.90431 92.4181 9.05948 91.9358 9.11087C92.2724 10.4755 92.5453 11.5489 92.7909 12.3495C92.9653 12.9911 93.2125 13.6108 93.5278 14.1962C93.7303 14.579 94.0487 14.8879 94.4375 15.0787C94.4375 15.0787 94.4375 15.1196 94.4148 15.1696ZM90.321 8.62872C90.5917 8.74058 90.8836 8.79181 91.1761 8.77882C91.4153 8.75253 91.6351 8.63527 91.7902 8.45132C92.0089 8.1797 92.1783 7.87178 92.2906 7.54159C92.539 7.05482 92.6098 6.4966 92.4907 5.96322C92.4112 5.77913 92.2922 5.61481 92.1421 5.48195C91.9919 5.34909 91.8143 5.25095 91.6219 5.19451C91.379 5.07814 91.1009 5.05862 90.8441 5.13993C90.7378 5.20162 90.6451 5.28421 90.5716 5.38272C90.4982 5.48122 90.4454 5.59359 90.4165 5.71305C90.1133 6.57729 89.81 7.44153 89.5068 8.30576C89.777 8.43134 90.055 8.53922 90.3392 8.62872H90.321Z" fill="#231F20"/>
<path d="M101.674 16.4801C101.7 16.4922 101.721 16.5132 101.733 16.5392C101.733 16.5619 101.733 16.5756 101.733 16.5847C101.334 17.0996 100.969 17.6406 100.642 18.204C100.619 18.2557 100.579 18.2977 100.528 18.3222C100.498 18.3273 100.466 18.3258 100.437 18.318C100.407 18.3102 100.379 18.2961 100.355 18.2768C98.5174 17.2397 96.6449 16.286 94.7376 15.4157C94.7148 15.4157 94.7103 15.3747 94.7376 15.3247C94.7648 15.2747 94.7876 15.2565 94.8103 15.2656C95.0099 15.3674 95.2227 15.4409 95.4426 15.4839C95.5086 15.4932 95.5759 15.487 95.6391 15.4657C95.7023 15.4443 95.7596 15.4085 95.8065 15.3611C95.9429 15.2054 96.0535 15.0288 96.134 14.838L98.8631 9.10674C98.9593 8.92684 99.0224 8.73121 99.0496 8.52907C99.0529 8.45694 99.0389 8.38508 99.0088 8.31943C98.9788 8.25378 98.9335 8.19623 98.8768 8.15153C98.687 7.99707 98.4755 7.87139 98.2491 7.77855C98.2218 7.77855 98.2172 7.73306 98.2491 7.68757C98.2809 7.64209 98.2991 7.61934 98.3264 7.62844C100.364 8.55939 102.367 9.57525 104.335 10.676C104.426 10.7306 104.453 10.7897 104.412 10.8625L103.548 12.4682C103.548 12.4682 103.507 12.4682 103.453 12.4682C103.398 12.4682 103.371 12.4272 103.375 12.3954C103.497 11.9103 103.437 11.3975 103.207 10.9535C102.915 10.483 102.493 10.1071 101.993 9.87091L101.57 9.65258C101.36 9.52425 101.113 9.46981 100.869 9.49792C100.768 9.52252 100.674 9.5708 100.595 9.6388C100.516 9.7068 100.454 9.79258 100.414 9.8891C99.9958 10.72 99.5788 11.5539 99.1634 12.3908L100.282 12.9594C100.683 13.2011 101.139 13.3358 101.606 13.3506C101.766 13.3572 101.925 13.3179 102.063 13.2373C102.202 13.1567 102.315 13.0382 102.388 12.8957C102.388 12.873 102.434 12.873 102.484 12.8957C102.534 12.9185 102.552 12.9503 102.538 12.9731L101.929 14.0465L101.624 14.6288C101.492 14.9108 101.379 15.1337 101.292 15.2929C101.292 15.2929 101.251 15.2929 101.201 15.2929C101.151 15.2929 101.128 15.2383 101.133 15.2246C101.22 15.0715 101.266 14.8983 101.266 14.722C101.266 14.5457 101.22 14.3725 101.133 14.2194C100.879 13.8185 100.512 13.502 100.078 13.3097C99.7137 13.1232 99.3453 12.9321 98.9769 12.7502L97.6123 15.5203C97.5042 15.6989 97.4608 15.9093 97.4895 16.1162C97.5158 16.2061 97.5623 16.2888 97.6253 16.3582C97.6884 16.4275 97.7663 16.4816 97.8534 16.5164L98.2718 16.7302C98.8241 17.0484 99.4543 17.2059 100.091 17.1851C100.667 17.1309 101.21 16.8879 101.633 16.4937C101.633 16.4937 101.642 16.4619 101.674 16.4801Z" fill="#231F20"/>
<path d="M108.574 20.91C108.598 20.9256 108.617 20.9477 108.629 20.9737C108.634 20.9899 108.634 21.0075 108.629 21.0237C108.177 21.4917 107.757 21.9902 107.373 22.5157C107.362 22.5436 107.343 22.568 107.319 22.5865C107.295 22.6049 107.267 22.6168 107.237 22.621C107.207 22.6251 107.177 22.6213 107.149 22.6101C107.121 22.5988 107.096 22.5803 107.078 22.5566C105.337 21.3103 103.554 20.1473 101.729 19.0678C101.729 19.0678 101.729 19.0223 101.729 18.9768C101.729 18.9314 101.783 18.9132 101.81 18.9268C102 19.0484 102.205 19.1447 102.42 19.2134C102.487 19.2292 102.556 19.2288 102.623 19.2122C102.689 19.1956 102.751 19.1632 102.802 19.1178C102.953 18.976 103.082 18.8119 103.184 18.6311L106.486 13.2183C106.603 13.0509 106.687 12.8624 106.732 12.6634C106.743 12.5917 106.737 12.5183 106.714 12.4495C106.691 12.3806 106.652 12.3183 106.6 12.2676C106.427 12.0875 106.227 11.9342 106.009 11.8128C105.981 11.7946 105.981 11.7627 106.009 11.7172C106.036 11.6672 106.063 11.6536 106.091 11.6718C108.037 12.821 109.945 14.0598 111.813 15.388C111.899 15.4471 111.917 15.5153 111.872 15.579C111.531 16.0839 111.185 16.5843 110.839 17.0846C110.839 17.0846 110.798 17.0846 110.748 17.0846C110.698 17.0846 110.671 17.0346 110.68 17.0027C110.85 16.5306 110.84 16.0126 110.653 15.5472C110.409 15.0416 110.024 14.618 109.543 14.3281L109.17 14.0689C108.973 13.9187 108.731 13.8372 108.483 13.8369C108.381 13.8517 108.284 13.8903 108.199 13.9495C108.115 14.0088 108.045 14.0871 107.997 14.178L106.491 16.5297L107.555 17.2256C107.931 17.5024 108.368 17.6835 108.829 17.7533C108.987 17.7779 109.149 17.7577 109.296 17.695C109.443 17.6323 109.57 17.5295 109.661 17.3985C109.661 17.3985 109.707 17.3985 109.752 17.3985C109.798 17.3985 109.816 17.4621 109.802 17.4849L109.079 18.4856L108.715 19.0314C108.556 19.2998 108.42 19.4863 108.315 19.6546C108.315 19.6546 108.279 19.6546 108.228 19.6273C108.178 19.6 108.156 19.5682 108.169 19.55C108.274 19.4082 108.338 19.2414 108.358 19.0665C108.377 18.8917 108.349 18.7148 108.279 18.5538C108.069 18.1174 107.733 17.7543 107.314 17.5122C106.969 17.2802 106.618 17.0573 106.268 16.8253L104.594 19.4362C104.468 19.6036 104.404 19.8092 104.412 20.0185C104.428 20.1138 104.465 20.2043 104.521 20.2831C104.577 20.362 104.65 20.427 104.735 20.4733L105.135 20.7372C105.652 21.1119 106.26 21.3384 106.896 21.3922C107.476 21.4055 108.045 21.2246 108.511 20.8782C108.511 20.8782 108.542 20.8827 108.574 20.91Z" fill="#231F20"/>
<path d="M121.966 24.026C121.929 24.0624 121.902 24.076 121.884 24.0578C121.751 23.9149 121.589 23.8035 121.408 23.7319C121.227 23.6603 121.032 23.6302 120.837 23.6439C120.42 23.6951 120.037 23.9013 119.764 24.2216L114.947 29.316C114.947 29.316 114.897 29.316 114.861 29.316C114.845 29.3088 114.831 29.2981 114.82 29.2847C114.809 29.2713 114.801 29.2556 114.797 29.2387C114.781 25.8031 114.541 22.3723 114.078 18.9679C112.984 20.3658 111.889 21.7653 110.794 23.1663C110.525 23.4762 110.365 23.8663 110.339 24.2761C110.333 24.4537 110.372 24.63 110.451 24.7889C110.53 24.9478 110.648 25.0842 110.794 25.1859C110.794 25.1859 110.794 25.2268 110.762 25.2677C110.73 25.3087 110.703 25.3269 110.69 25.3132C110.476 25.1404 110.312 25.0085 110.207 24.9084L109.593 24.4081C109.352 24.2261 109.111 24.0442 108.866 23.8668C108.729 23.7712 108.533 23.6302 108.288 23.4437C108.261 23.4437 108.265 23.3983 108.288 23.3528C108.311 23.3073 108.347 23.2982 108.37 23.3118C108.517 23.4337 108.689 23.5217 108.873 23.5696C109.058 23.6176 109.251 23.6243 109.439 23.5893C109.846 23.4956 110.203 23.252 110.439 22.907L113.983 18.322C113.933 17.9431 113.827 17.5737 113.669 17.2258C113.548 16.9814 113.37 16.7693 113.15 16.6072C113.15 16.6072 113.15 16.5662 113.173 16.5208C113.196 16.4753 113.232 16.4616 113.25 16.4753L113.787 16.8937C113.896 16.9893 114.055 17.1166 114.274 17.2804L115.256 18.0309C115.384 18.1173 115.529 18.231 115.711 18.3675C115.769 18.4073 115.812 18.4648 115.834 18.5312C115.834 18.5858 115.843 18.695 115.861 18.8587C115.861 19.1362 115.861 19.3136 115.898 19.4319C116.201 22.0337 116.374 24.6112 116.416 27.1645L119.437 23.935C119.74 23.6453 119.929 23.2562 119.969 22.8388C119.974 22.6491 119.935 22.4607 119.857 22.2881C119.778 22.1154 119.66 21.9631 119.514 21.8426C119.514 21.8426 119.514 21.8017 119.546 21.7608C119.578 21.7198 119.609 21.7062 119.623 21.7198L120.142 22.2111C120.387 22.4658 120.596 22.6659 120.774 22.8433C120.951 23.0207 121.165 23.2027 121.465 23.4665C121.647 23.6348 121.834 23.8076 122.011 23.9805C122.016 23.9577 122.006 23.985 121.966 24.026Z" fill="#231F20"/>
<path d="M122.952 34.3603C122.972 34.3841 122.986 34.4121 122.993 34.4422C122.993 34.4695 122.993 34.4877 122.993 34.4922C122.433 34.8253 121.899 35.2009 121.397 35.6157C121.356 35.6548 121.303 35.6775 121.247 35.6794C121.182 35.6633 121.126 35.6245 121.087 35.5702C119.641 33.8357 118.137 32.1861 116.575 30.6213C116.575 30.5986 116.575 30.5668 116.602 30.5304C116.63 30.494 116.671 30.4849 116.689 30.5031C116.849 30.6772 117.031 30.83 117.23 30.9579C117.29 30.9921 117.356 31.0123 117.425 31.017C117.493 31.0217 117.562 31.0109 117.626 30.9852C117.809 30.889 117.975 30.7629 118.117 30.6122L122.666 26.191C122.816 26.0627 122.942 25.9087 123.039 25.7361C123.065 25.6665 123.076 25.5917 123.069 25.5175C123.061 25.4434 123.037 25.3718 122.998 25.3086C122.864 25.0867 122.701 24.8846 122.511 24.7081C122.488 24.7081 122.511 24.6536 122.534 24.6172C122.557 24.5808 122.602 24.5717 122.629 24.5944C124.294 26.2683 125.904 28.0271 127.46 29.8708C127.533 29.9573 127.537 30.03 127.46 30.0801L126.095 31.2764C126.095 31.2764 126.05 31.2763 126.004 31.2354C125.959 31.1945 125.945 31.1581 125.959 31.1308C126.239 30.7025 126.349 30.1851 126.268 29.6798C126.141 29.1067 125.855 28.5805 125.445 28.1605C125.331 28.0332 125.218 27.9104 125.108 27.783C124.947 27.5793 124.726 27.4314 124.476 27.36C124.374 27.3454 124.269 27.3559 124.172 27.3908C124.074 27.4257 123.987 27.4838 123.917 27.5601L121.87 29.4615L122.78 30.4485C123.088 30.8397 123.486 31.1515 123.939 31.3582C124.086 31.4293 124.25 31.4563 124.411 31.4361C124.573 31.416 124.725 31.3494 124.849 31.2445C124.872 31.2445 124.899 31.2445 124.94 31.2854C124.981 31.3264 124.986 31.3628 124.967 31.381L124.017 32.1679L123.53 32.6227C123.306 32.8411 123.124 33.0094 122.984 33.1276C122.984 33.1276 122.943 33.1276 122.902 33.0731C122.861 33.0185 122.848 32.9957 122.861 32.9821C123 32.8693 123.105 32.7206 123.165 32.5522C123.226 32.3837 123.238 32.2021 123.203 32.0269C123.093 31.5318 122.844 31.0786 122.484 30.7214C122.188 30.3939 121.897 30.071 121.597 29.7526L119.323 31.8586C119.157 31.9891 119.044 32.1747 119.004 32.3817C119 32.4795 119.017 32.5771 119.055 32.6675C119.093 32.7579 119.15 32.8389 119.222 32.9048L119.564 33.2777C119.985 33.795 120.533 34.1933 121.156 34.4331C121.723 34.6114 122.333 34.5938 122.889 34.3831C122.889 34.3831 122.925 34.3285 122.952 34.3603Z" fill="#231F20"/>
<path d="M11.4038 41.0085H33.7102L30.4625 30.1055L11.4038 41.0085Z" fill="#CFE5AE"/>
<path d="M45.0867 22.3179H35.4209L30.4629 30.1051L45.0867 22.3179Z" fill="#CFE5AE"/>
<path d="M82.5535 22.3179H63.8223L76.3492 29.4819L82.5535 22.3179Z" fill="#C8DDA8"/>
<path d="M33.7104 41.0081H63.8223L51.2909 29.4819L33.7104 41.0081Z" fill="#B9D989"/>
<path d="M63.8222 22.3179H45.0864L51.2907 29.4819L63.8222 22.3179Z" fill="#CFE5AE"/>
<path d="M92.219 22.3179H82.5532L97.1816 30.1051L92.219 22.3179Z" fill="#B9D989"/>
<path d="M63.8223 41.0081H93.9296L76.3492 29.4819L63.8223 41.0081Z" fill="#AED477"/>
<path d="M93.9292 41.0085H116.236L97.1815 30.1055L93.9292 41.0085Z" fill="#A3CF62"/>
<path d="M35.4205 22.3179L11.4038 41.0081L30.4625 30.1051L35.4205 22.3179Z" fill="#B9D989"/>
<path d="M45.0867 22.3179L30.4629 30.1051L33.7106 41.0081L51.291 29.4819L45.0867 22.3179Z" fill="#E5F1D4"/>
<path d="M97.1818 30.1051L116.236 41.0081L92.2192 22.3179L97.1818 30.1051Z" fill="#99CB4F"/>
<path d="M82.5534 22.3179L76.3491 29.4819L93.9295 41.0081L97.1818 30.1051L82.5534 22.3179Z" fill="#CFE5AE"/>
<path d="M63.822 22.3179L51.2905 29.4819L63.822 41.0081L76.3489 29.4819L63.822 22.3179Z" fill="#E5F1D4"/>
<path d="M11.4038 41.0083H33.7102L63.3672 94.8275L11.4038 41.0083Z" fill="#B9D989"/>
<path d="M33.7104 41.0083H63.8223L63.3674 94.8275L33.7104 41.0083Z" fill="#AED477"/>
<path d="M63.8225 41.0083H93.9298L63.3677 94.8275L63.8225 41.0083Z" fill="#A3CF62"/>
<path d="M93.9298 41.0083H116.236L63.3677 94.8275L93.9298 41.0083Z" fill="#99CB4F"/>
<path d="M11.4038 41.0083H33.7102L47.82 73.7629L11.4038 41.0083Z" fill="#CFE5AE"/>
<path d="M33.7104 41.0083H63.8223L58.4731 75.4368L33.7104 41.0083Z" fill="#CFE5AE"/>
<path d="M63.8223 41.0083H93.9296L69.0168 75.4368L63.8223 41.0083Z" fill="#AED477"/>
<path d="M93.9296 41.0083H116.236L79.5469 73.7629L93.9296 41.0083Z" fill="#B9D989"/>
<path d="M11.4038 41.0083H22.6252L47.82 73.7629L11.4038 41.0083Z" fill="#E5F1D4"/>
<path d="M46.6421 41.0083H63.8222L58.473 75.4368L46.6421 41.0083Z" fill="#B9D989"/>
<path d="M63.8223 41.0083H80.9979L69.0168 75.4368L63.8223 41.0083Z" fill="#B9D989"/>
<path d="M105.015 41.0083H116.236L79.5469 73.7629L105.015 41.0083Z" fill="#AED477"/>
</svg>
