<?xml version="1.0" encoding="UTF-8" standalone="no"?>
<svg width="71px" height="17px" viewBox="0 0 71 17" version="1.1" xmlns="http://www.w3.org/2000/svg" xmlns:xlink="http://www.w3.org/1999/xlink">
    <!-- Generator: Sketch 43.1 (39012) - http://www.bohemiancoding.com/sketch -->
    <title>stars</title>
    <desc>Created with Sketch.</desc>
    <defs></defs>
    <g id="Page-1" stroke="none" stroke-width="1" fill="none" fill-rule="evenodd">
        <g id="stars" fill-rule="nonzero" fill="#27536F">
            <polygon id="Star-Copy-Copy" points="9 14.0960533 3.4376941 17 4.5 10.8493422 0 6.49342218 6.21884706 5.59605329 9 0 11.781153 5.59605329 18 6.49342218 13.5000001 10.8493422 14.5623059 17"></polygon>
            <polygon id="Star-Copy-Copy-2" points="35 14.0960533 29.4376941 17 30.5 10.8493422 26 6.49342218 32.2188471 5.59605329 35 0 37.781153 5.59605329 44 6.49342218 39.5000001 10.8493422 40.5623059 17"></polygon>
            <polygon id="Star-Copy-Copy-3" points="62 14.0960533 56.4376941 17 57.5 10.8493422 53 6.49342218 59.2188471 5.59605329 62 0 64.781153 5.59605329 71 6.49342218 66.5000001 10.8493422 67.5623059 17"></polygon>
        </g>
    </g>
</svg>