<?xml version="1.0" standalone="no"?>
<!DOCTYPE svg PUBLIC "-//W3C//DTD SVG 20010904//EN"
 "http://www.w3.org/TR/2001/REC-SVG-20010904/DTD/svg10.dtd">
<svg version="1.0" xmlns="http://www.w3.org/2000/svg"
 width="1014.000000pt" height="1014.000000pt" viewBox="0 0 1014.000000 1014.000000"
 preserveAspectRatio="xMidYMid meet">
<metadata>
Created by potrace 1.11, written by Peter Selinger 2001-2013
</metadata>
<g transform="translate(0.000000,1014.000000) scale(0.100000,-0.100000)"
fill="#000000" stroke="none">
<path d="M2299 8552 c-20 -15 -49 -37 -65 -50 -16 -12 -67 -52 -114 -88 -47
-36 -92 -71 -102 -79 -9 -7 -39 -30 -67 -51 -28 -21 -51 -42 -51 -46 0 -4 -5
-8 -10 -8 -9 0 -62 -40 -195 -146 -16 -13 -68 -53 -115 -90 -47 -36 -97 -76
-112 -87 -15 -12 -39 -31 -53 -42 -53 -38 -360 -279 -365 -285 -3 -4 -12 -11
-21 -16 -9 -5 -32 -22 -50 -37 -19 -15 -144 -113 -279 -218 -134 -104 -247
-195 -251 -200 -3 -6 -9 -10 -13 -9 -4 1 -20 -9 -34 -22 -22 -19 -90 -72 -171
-133 -7 -5 -25 -21 -40 -35 -15 -14 -32 -26 -37 -28 -5 -2 -22 -14 -38 -27
-30 -25 -67 -54 -99 -78 -17 -12 -12 -20 75 -109 51 -53 146 -152 212 -220
140 -145 525 -544 646 -669 76 -79 308 -319 530 -549 92 -95 445 -461 560
-580 123 -126 473 -489 555 -575 86 -90 458 -474 608 -629 54 -56 165 -171
247 -256 82 -85 194 -202 250 -260 223 -230 503 -519 580 -600 76 -79 301
-312 612 -633 l127 -131 216 219 c119 121 360 366 535 545 176 179 448 455
605 615 157 159 285 290 285 290 0 1 456 465 802 817 207 211 471 480 587 598
115 118 215 220 220 225 29 28 259 262 1419 1443 106 108 248 253 315 320
l122 124 -30 24 c-17 14 -55 44 -85 67 -30 23 -60 47 -66 52 -6 6 -24 20 -40
32 -48 37 -237 184 -266 206 -14 12 -36 29 -48 37 -13 8 -28 21 -36 28 -7 7
-34 29 -60 49 -26 19 -53 40 -58 45 -6 5 -69 54 -141 109 -71 55 -139 108
-150 117 -11 10 -36 28 -55 42 -19 13 -37 27 -40 30 -3 3 -25 21 -50 40 -25
19 -50 39 -56 45 -6 5 -22 17 -34 25 -12 8 -28 20 -34 25 -6 6 -31 26 -56 45
-25 19 -52 40 -60 47 -37 29 -134 105 -245 191 -137 106 -127 98 -222 175 -40
31 -75 57 -78 57 -3 0 -18 11 -33 25 -15 14 -63 53 -107 86 -44 34 -101 77
-127 97 -27 20 -48 40 -48 44 0 4 -5 8 -11 8 -5 0 -27 13 -47 30 l-38 30
-2732 -3 c-1503 -1 -2733 1 -2735 5 -1 4 -18 -5 -38 -20z"/>
</g>
</svg>
