<svg width="53" height="40" viewBox="0 0 53 40" fill="none" xmlns="http://www.w3.org/2000/svg">
<path d="M47.6923 40H4.61538C2 40 0 38 0 35.3846V4.61538C0 2 2 0 4.61538 0H47.6923C50.3077 0 52.3077 2 52.3077 4.61538V35.3846C52.3077 38 50.3077 40 47.6923 40ZM4.61538 3.07692C3.69231 3.07692 3.07692 3.69231 3.07692 4.61538V35.3846C3.07692 36.3077 3.69231 36.9231 4.61538 36.9231H47.6923C48.6154 36.9231 49.2308 36.3077 49.2308 35.3846V4.61538C49.2308 3.69231 48.6154 3.07692 47.6923 3.07692H4.61538Z" fill="#A2CF27"/>
<path d="M1.53809 6.1543H50.7689V15.3851H1.53809V6.1543Z" fill="#A2CF27"/>
<path d="M6.1543 21.5381H7.69276V24.615H6.1543V21.5381Z" fill="#A2CF27"/>
<path d="M9.23047 21.5381H10.7689V24.615H9.23047V21.5381Z" fill="#A2CF27"/>
<path d="M12.3076 21.5381H13.8461V24.615H12.3076V21.5381Z" fill="#A2CF27"/>
<path d="M16.9229 21.5381H18.4613V24.615H16.9229V21.5381Z" fill="#A2CF27"/>
<path d="M20 21.5381H21.5385V24.615H20V21.5381Z" fill="#A2CF27"/>
<path d="M23.0771 21.5381H24.6156V24.615H23.0771V21.5381Z" fill="#A2CF27"/>
<path d="M27.6924 21.5381H29.2308V24.615H27.6924V21.5381Z" fill="#A2CF27"/>
<path d="M30.7695 21.5381H32.308V24.615H30.7695V21.5381Z" fill="#A2CF27"/>
<path d="M33.8457 21.5381H35.3842V24.615H33.8457V21.5381Z" fill="#A2CF27"/>
<path d="M38.4619 21.5381H40.0004V24.615H38.4619V21.5381Z" fill="#A2CF27"/>
<path d="M41.5381 21.5381H43.0765V24.615H41.5381V21.5381Z" fill="#A2CF27"/>
<path d="M44.6152 21.5381H46.1537V24.615H44.6152V21.5381Z" fill="#A2CF27"/>
</svg>
