<svg width="30" height="27" viewBox="0 0 30 27" fill="none" xmlns="http://www.w3.org/2000/svg">
<path fill-rule="evenodd" clip-rule="evenodd" d="M17.962 2.06229C17.426 2.06229 17.1572 2.63319 17.5357 2.9649C17.9139 3.29673 18.5647 3.06115 18.5647 2.59082C18.5647 2.29869 18.295 2.06229 17.962 2.06229ZM12.0536 0.520508C13.3571 0.520508 14.414 1.44749 14.414 2.59082C14.414 4.06525 12.714 5.04992 11.1822 4.51563L5.72183 9.10315H24.2935L18.8328 4.51563C17.9842 4.81095 16.9795 4.65754 16.2927 4.05507C15.3708 3.24624 15.3708 1.93561 16.2927 1.12698C17.2147 0.31835 18.709 0.31835 19.6307 1.12698C20.3492 1.757 20.5078 2.6919 20.1068 3.45662L26.8279 9.10315H28.0838C29.1396 9.10315 30 9.858 30 10.784V13.1785C30 14.1043 29.1396 14.8592 28.0838 14.8592H27.5797L24.9169 25.045C24.6432 26.0916 23.6104 26.8338 22.3911 26.8338H7.60636C6.38701 26.8338 5.3543 26.0919 5.08079 25.0453L2.41877 14.8592H1.91595C0.860379 14.8592 0 14.1043 0 13.1785V10.784C0 9.858 0.860379 9.10315 1.91619 9.10315H3.18747L9.90883 3.45662C9.19652 2.10178 10.3182 0.520508 12.0536 0.520508ZM12.4798 2.21715C12.1013 1.88533 11.4507 2.12101 11.4507 2.59082C11.4507 3.06115 12.1013 3.29673 12.4798 2.9649C12.7149 2.75853 12.7149 2.42362 12.4798 2.21715ZM9.72653 16.2211C9.24107 16.2211 8.84763 16.5663 8.84763 16.992C8.84763 17.4178 9.24107 17.7629 9.72653 17.7629C10.212 17.7629 10.6054 17.4178 10.6054 16.992C10.6054 16.5663 10.212 16.2211 9.72653 16.2211ZM13.2421 16.2211C12.7568 16.2211 12.3632 16.5663 12.3632 16.992C12.3632 17.4178 12.7568 17.7629 13.2421 17.7629C13.7276 17.7629 14.121 17.4178 14.121 16.992C14.121 16.5663 13.7276 16.2211 13.2421 16.2211ZM16.7576 16.2211C16.2724 16.2211 15.8787 16.5663 15.8787 16.992C15.8787 17.4178 16.2724 17.7629 16.7576 17.7629C17.243 17.7629 17.6365 17.4178 17.6365 16.992C17.6365 16.5663 17.243 16.2211 16.7576 16.2211ZM20.2735 16.2211C19.788 16.2211 19.3946 16.5663 19.3946 16.992C19.3946 17.4178 19.788 17.7629 20.2735 17.7629C20.7589 17.7629 21.1524 17.4178 21.1524 16.992C21.1524 16.5663 20.7589 16.2211 20.2735 16.2211ZM9.72653 22.3883C9.24107 22.3883 8.84763 22.7335 8.84763 23.1593C8.84763 23.585 9.24107 23.9301 9.72653 23.9301C10.212 23.9301 10.6054 23.585 10.6054 23.1593C10.6054 22.7335 10.212 22.3883 9.72653 22.3883ZM13.2421 22.3883C12.7568 22.3883 12.3632 22.7335 12.3632 23.1593C12.3632 23.585 12.7568 23.9301 13.2421 23.9301C13.7276 23.9301 14.121 23.585 14.121 23.1593C14.121 22.7335 13.7276 22.3883 13.2421 22.3883ZM16.7576 22.3883C16.2724 22.3883 15.8787 22.7335 15.8787 23.1593C15.8787 23.585 16.2724 23.9301 16.7576 23.9301C17.243 23.9301 17.6365 23.585 17.6365 23.1593C17.6365 22.7335 17.243 22.3883 16.7576 22.3883ZM20.2735 22.3883C19.788 22.3883 19.3946 22.7335 19.3946 23.1593C19.3946 23.585 19.788 23.9301 20.2735 23.9301C20.7589 23.9301 21.1524 23.585 21.1524 23.1593C21.1524 22.7335 20.7589 22.3883 20.2735 22.3883ZM22.0313 19.3047C21.5458 19.3047 21.1524 19.65 21.1524 20.0756C21.1524 20.5014 21.5458 20.8465 22.0313 20.8465C22.5167 20.8465 22.9102 20.5014 22.9102 20.0756C22.9102 19.65 22.5167 19.3047 22.0313 19.3047ZM18.5157 19.3047C18.0302 19.3047 17.6368 19.65 17.6368 20.0756C17.6368 20.5014 18.0302 20.8465 18.5157 20.8465C19.0011 20.8465 19.3946 20.5014 19.3946 20.0756C19.3946 19.65 19.0011 19.3047 18.5157 19.3047ZM15.0001 19.3047C14.5146 19.3047 14.121 19.65 14.121 20.0756C14.121 20.5014 14.5146 20.8465 15.0001 20.8465C15.4854 20.8465 15.879 20.5014 15.879 20.0756C15.879 19.65 15.4854 19.3047 15.0001 19.3047ZM11.4846 19.3047C10.9991 19.3047 10.6056 19.65 10.6056 20.0756C10.6056 20.5014 10.9991 20.8465 11.4846 20.8465C11.9698 20.8465 12.3635 20.5014 12.3635 20.0756C12.3635 19.65 11.9698 19.3047 11.4846 19.3047ZM7.96873 19.3047C7.48326 19.3047 7.08983 19.65 7.08983 20.0756C7.08983 20.5014 7.48326 20.8465 7.96873 20.8465C8.4542 20.8465 8.84763 20.5014 8.84763 20.0756C8.84763 19.65 8.4542 19.3047 7.96873 19.3047ZM4.21725 14.8592L6.79041 24.7021C6.88186 25.051 7.19592 25.292 7.60636 25.292H22.3911C22.8017 25.292 23.1156 25.051 23.207 24.7019L25.7804 14.8592H4.21725ZM28.0838 10.6449H1.91619C1.83084 10.6449 1.7578 10.7091 1.7578 10.784V13.1785C1.7578 13.2534 1.83084 13.3174 1.91619 13.3174H28.084C28.1692 13.3174 28.2422 13.2534 28.2422 13.1785V10.784C28.2422 10.7091 28.1692 10.6449 28.0838 10.6449Z" fill="#126658"/>
</svg>
