<svg width="28" height="25" viewBox="0 0 28 25" fill="none" xmlns="http://www.w3.org/2000/svg">
<path d="M21.715 7.50002C21.715 3.61383 18.1463 0.452148 13.76 0.452148C9.37361 0.452148 5.80499 3.61383 5.80499 7.50002C5.80499 9.90715 7.17448 12.0359 9.25901 13.308C7.31273 13.903 5.52888 14.8859 4.03017 16.2137C1.43125 18.5163 0 21.5777 0 24.834H2.15C2.15 19.1622 7.3582 14.5479 13.76 14.5479C18.1463 14.5479 21.715 11.3862 21.715 7.50002ZM7.95499 7.50002C7.95499 4.66411 10.5591 2.35698 13.76 2.35698C16.9608 2.35698 19.565 4.66411 19.565 7.50002C19.565 10.3359 16.9608 12.6431 13.76 12.6431C10.5591 12.6431 7.95499 10.3359 7.95499 7.50002Z" fill="#1A6155"/>
<path d="M22.1452 15.3101C20.4493 15.3101 18.8546 16.0278 17.8467 17.2149H11.2187L8.49268 19.63V20.5692L11.2268 22.9294H17.8467C18.8546 24.1165 20.4493 24.8342 22.1452 24.8342C25.1089 24.8342 27.5201 22.698 27.5201 20.0721C27.5201 17.4463 25.1089 15.3101 22.1452 15.3101ZM22.1452 22.9294C20.9984 22.9294 19.9282 22.3817 19.3523 21.4999L19.0417 21.0246H16.594L15.0381 19.715L13.6339 21.0246H12.101L11.0162 20.0881L12.1092 19.1197H19.0418L19.3523 18.6444C19.9282 17.7626 20.9984 17.2149 22.1452 17.2149C23.9234 17.2149 25.3701 18.4967 25.3701 20.0721C25.3701 21.6476 23.9234 22.9294 22.1452 22.9294Z" fill="#1A6155"/>
<path d="M23.22 21.0245C23.8137 21.0245 24.295 20.598 24.295 20.072C24.295 19.546 23.8137 19.1196 23.22 19.1196C22.6263 19.1196 22.145 19.546 22.145 20.072C22.145 20.598 22.6263 21.0245 23.22 21.0245Z" fill="#1A6155"/>
</svg>
