<svg width="9" height="9" viewBox="0 0 9 9" fill="none" xmlns="http://www.w3.org/2000/svg">
<path d="M8.0289 3.70077C8.30636 3.70077 8.53757 3.79344 8.72254 3.97876C8.90752 4.15251 9 4.37838 9 4.65637C9 4.93436 8.90752 5.16602 8.72254 5.35135C8.53757 5.5251 8.30636 5.61197 8.0289 5.61197H5.60116V7.88803C5.60116 8.21236 5.49133 8.47876 5.27168 8.68726C5.06358 8.89575 4.79769 9 4.47399 9C4.15029 9 3.87861 8.89575 3.65896 8.68726C3.45087 8.47876 3.34682 8.21236 3.34682 7.88803V5.61197H0.971098C0.693642 5.61197 0.462428 5.51931 0.277457 5.33398C0.0924856 5.14865 0 4.91699 0 4.639C0 4.361 0.0924856 4.13514 0.277457 3.96139C0.462428 3.78764 0.693642 3.70077 0.971098 3.70077H3.34682V1.11197C3.34682 0.787645 3.45087 0.521236 3.65896 0.312741C3.87861 0.104247 4.15607 0 4.49133 0C4.81503 0 5.08093 0.104247 5.28902 0.312741C5.49711 0.521236 5.60116 0.787645 5.60116 1.11197V3.70077H8.0289Z" fill="#A2CF27"/>
</svg>
