<svg width="52" height="40" viewBox="0 0 52 40" fill="none" xmlns="http://www.w3.org/2000/svg">
<path d="M16.8188 20.1964C16.8188 21.2857 15.9431 22.1161 14.8326 22.1161C14.0021 22.1161 13.3882 21.6518 13.3882 20.7768C13.3882 19.6875 14.2458 18.8125 15.3472 18.8125C16.1868 18.8125 16.8188 19.3214 16.8188 20.1964ZM7.26736 15.8661H6.84306C6.70764 15.8661 6.57222 15.9554 6.55417 16.1071L6.16597 18.4911L6.90625 18.4643C7.89931 18.4643 8.66667 18.3304 8.84722 17.1964C9.05486 16 8.2875 15.8661 7.26736 15.8661ZM32.9062 15.8661H32.5C32.3375 15.8661 32.2292 15.9554 32.2111 16.1071L31.8319 18.4911L32.5542 18.4643C33.7278 18.4643 34.5403 18.1964 34.5403 16.8571C34.5312 15.9107 33.6736 15.8661 32.9062 15.8661ZM52 4.28571V35.7143C52 38.0804 50.059 40 47.6667 40H4.33333C1.94097 40 0 38.0804 0 35.7143V4.28571C0 1.91964 1.94097 0 4.33333 0H47.6667C50.059 0 52 1.91964 52 4.28571ZM11.5826 16.375C11.5826 14.5 10.1201 13.875 8.45 13.875H4.83889C4.61319 13.875 4.3875 14.0536 4.36944 14.2946L2.88889 23.4107C2.86181 23.5893 2.99722 23.7679 3.17778 23.7679H4.89306C5.13681 23.7679 5.3625 23.5089 5.38958 23.2589L5.79583 20.8839C5.88611 20.2411 6.9875 20.4643 7.42083 20.4643C10.0028 20.4643 11.5826 18.9464 11.5826 16.375ZM19.184 17.1607H17.4688C17.1257 17.1607 17.1076 17.6518 17.0896 17.8929C16.566 17.1339 15.8076 17 14.95 17C12.7382 17 11.05 18.9196 11.05 21.0357C11.05 22.7768 12.1514 23.9107 13.9118 23.9107C14.7243 23.9107 15.7354 23.4732 16.3042 22.8482C16.259 22.9821 16.2139 23.2679 16.2139 23.4018C16.2139 23.6071 16.3042 23.7589 16.5028 23.7589H18.0556C18.2993 23.7589 18.5069 23.5 18.5521 23.25L19.4729 17.5089C19.5 17.3393 19.3646 17.1607 19.184 17.1607ZM22.8403 25.9018L28.591 17.6339C28.6361 17.5893 28.6361 17.5446 28.6361 17.4821C28.6361 17.3304 28.5007 17.1696 28.3472 17.1696H26.6139C26.4604 17.1696 26.2979 17.2589 26.2076 17.3929L23.8153 20.875L22.8222 17.5268C22.75 17.3304 22.5514 17.1696 22.3257 17.1696H20.6375C20.484 17.1696 20.3486 17.3304 20.3486 17.4821C20.3486 17.5893 22.109 22.5536 22.2625 23.0268C22.0187 23.3661 20.4118 25.5804 20.4118 25.8482C20.4118 26.0089 20.5472 26.1339 20.7007 26.1339H22.434C22.5965 26.125 22.75 26.0357 22.8403 25.9018ZM37.2215 16.375C37.2215 14.5 35.759 13.875 34.0889 13.875H30.5049C30.2611 13.875 30.0354 14.0536 30.0083 14.2946L28.5458 23.4018C28.5278 23.5804 28.6632 23.7589 28.8347 23.7589H30.6854C30.866 23.7589 31.0014 23.625 31.0465 23.4732L31.4528 20.8839C31.5431 20.2411 32.6444 20.4643 33.0778 20.4643C35.6417 20.4643 37.2215 18.9464 37.2215 16.375ZM44.8229 17.1607H43.1076C42.7646 17.1607 42.7465 17.6518 42.7194 17.8929C42.2229 17.1339 41.4556 17 40.5799 17C38.3681 17 36.6799 18.9196 36.6799 21.0357C36.6799 22.7768 37.7812 23.9107 39.5417 23.9107C40.3812 23.9107 41.3924 23.4732 41.934 22.8482C41.9069 22.9821 41.8438 23.2679 41.8438 23.4018C41.8438 23.6071 41.934 23.7589 42.1326 23.7589H43.6944C43.9382 23.7589 44.1458 23.5 44.191 23.25L45.1118 17.5089C45.1389 17.3393 45.0035 17.1607 44.8229 17.1607ZM49.1111 14.1875C49.1111 14.0089 48.9757 13.875 48.8222 13.875H47.1521C47.0167 13.875 46.8812 13.9821 46.8632 14.1161L45.4007 23.4018L45.3736 23.4464C45.3736 23.6071 45.509 23.7589 45.6896 23.7589H47.1792C47.4049 23.7589 47.6306 23.5 47.6486 23.25L49.1111 14.2143V14.1875ZM40.9861 18.8125C39.8847 18.8125 39.0271 19.6786 39.0271 20.7768C39.0271 21.6429 39.659 22.1161 40.4896 22.1161C41.5729 22.1161 42.4486 21.2946 42.4486 20.1964C42.4576 19.3214 41.8257 18.8125 40.9861 18.8125Z" fill="#A2CF27"/>
</svg>
