<?xml version="1.0" encoding="UTF-8" standalone="no"?>
<svg width="59px" height="16px" viewBox="0 0 59 16" version="1.1" xmlns="http://www.w3.org/2000/svg" xmlns:xlink="http://www.w3.org/1999/xlink">
    <!-- Generator: Sketch 43.1 (39012) - http://www.bohemiancoding.com/sketch -->
    <title>pp</title>
    <desc>Created with Sketch.</desc>
    <defs></defs>
    <g id="Page-1" stroke="none" stroke-width="1" fill="none" fill-rule="evenodd">
        <g id="pp" fill-rule="nonzero" fill="#A2CF27">
            <path d="M17.6814086,8.25052819 C17.6814086,9.67225444 16.5609344,10.7560711 15.1400292,10.7560711 C14.0773892,10.7560711 13.2918928,10.1500787 13.2918928,9.00805129 C13.2918928,7.58632504 14.3892078,6.44429761 15.7984693,6.44429761 C16.872753,6.44429761 17.6814086,7.10850076 17.6814086,8.25052819 Z M20.7077255,4.28841087 L18.5130955,4.28841087 C18.0740928,4.28841087 18.0509335,4.92938192 18.0279022,5.24405942 C17.3579464,4.2534322 16.3875596,4.07866937 15.2902446,4.07866937 C12.4602059,4.07866937 10.300123,6.58408177 10.300123,9.34596089 C10.300123,11.6183997 11.7093845,13.0983367 13.9618487,13.0983367 C15.0014573,13.0983367 16.2951784,12.527323 17.0229684,11.7115891 C16.9651342,11.886352 16.9074279,12.2593707 16.9074279,12.4341336 C16.9074279,12.7020858 17.0229684,12.9002113 17.2770808,12.9002113 L19.2639169,12.9002113 C19.5757356,12.9002113 19.8413636,12.5623017 19.8991978,12.2360081 L21.0773783,4.74287253 C21.1120533,4.52151498 20.9388065,4.28841087 20.7077255,4.28841087 Z M25.3860285,15.6970691 L32.7441549,4.9060193 C32.8018612,4.84780853 32.8018612,4.78946724 32.8018612,4.70789386 C32.8018612,4.50989893 32.6286144,4.30002692 32.4322083,4.30002692 L30.2144191,4.30002692 C30.018013,4.30002692 29.8100913,4.41657898 29.6945508,4.59147232 L26.6335589,9.1362194 L25.3628692,4.76623514 C25.270488,4.50989893 25.0163757,4.30002692 24.7275884,4.30002692 L22.5675054,4.30002692 C22.3710994,4.30002692 22.1978526,4.50989893 22.1978526,4.70789386 C22.1978526,4.84780853 24.4503167,11.3270848 24.6467228,11.9446932 C24.3347762,12.3875388 22.2787181,15.2775861 22.2787181,15.6271117 C22.2787181,15.8368532 22.4519649,16 22.648371,16 L24.8661602,16 C25.0740819,15.9883839 25.270488,15.8718319 25.3860285,15.6970691 Z M53.5131693,4.28841087 L51.3184114,4.28841087 C50.8795366,4.28841087 50.8563773,4.92938192 50.8217024,5.24405942 C50.1864215,4.2534322 49.204647,4.07866937 48.0841728,4.07866937 C45.254134,4.07866937 43.0940511,6.58408177 43.0940511,9.34596089 C43.0940511,11.6183997 44.5031847,13.0983367 46.7557768,13.0983367 C47.8299325,13.0983367 49.1237815,12.527323 49.8167686,11.7115891 C49.7820937,11.886352 49.7013561,12.2593707 49.7013561,12.4341336 C49.7013561,12.7020858 49.8167686,12.9002113 50.070881,12.9002113 L52.0692328,12.9002113 C52.3811794,12.9002113 52.6468074,12.5623017 52.7046416,12.2360081 L53.8828221,4.74287253 C53.9174971,4.52151498 53.7442503,4.28841087 53.5131693,4.28841087 Z M59,0.407866937 C59,0.174762825 58.8267532,0 58.6303471,0 L56.4934235,0 C56.3201767,0 56.146802,0.139784157 56.1237706,0.3146775 L54.252475,12.4341336 L54.2178001,12.4923443 C54.2178001,12.7020858 54.3910468,12.9002113 54.6221279,12.9002113 L56.5280984,12.9002113 C56.8168857,12.9002113 57.105673,12.5623017 57.1287044,12.2360081 L59,0.442845606 L59,0.407866937 Z M48.6039132,6.44429761 C49.6781968,6.44429761 50.4867245,7.10850076 50.4752088,8.25052819 C50.4752088,9.68387049 49.3547345,10.7560711 47.9686323,10.7560711 C46.9058643,10.7560711 46.0973366,10.1384627 46.0973366,9.00805129 C46.0973366,7.57470899 47.1946516,6.44429761 48.6039132,6.44429761 Z M43.7870383,3.2629355 C43.7870383,6.61906044 41.7656551,8.60018436 38.4850979,8.60018436 C37.9305547,8.60018436 36.5214211,8.30886947 36.4058806,9.14783545 L35.8860123,12.527323 C35.828306,12.7254484 35.6550592,12.9002113 35.4239782,12.9002113 L33.0559735,12.9002113 C32.8365361,12.9002113 32.6632893,12.6672377 32.6863206,12.4341336 L34.5576163,0.547651094 C34.5922912,0.233104112 34.8810785,0 35.1930251,0 L39.778819,0 C41.9157426,0 43.7870383,0.815733875 43.7870383,3.2629355 Z M38.2655326,2.59873235 L37.7457922,2.59873235 C37.5378705,2.59873235 37.3992987,2.71528441 37.3761394,2.91327933 L36.890946,6.02481462 L37.8151421,5.98983596 C39.3167849,5.98983596 40.3563936,5.64017979 40.3563936,3.89215998 C40.34475,2.65694312 39.247435,2.59873235 38.2655326,2.59873235 Z M11.1027759,3.42608227 C11.1027759,6.78220721 9.08139273,8.76333113 5.80083556,8.76333113 C5.24629229,8.76333113 3.8371587,8.47201625 3.72161819,9.31098223 L3.20174987,12.6904698 C3.14404359,12.8885952 2.9707968,13.0633581 2.73971578,13.0633581 L0.371711116,13.0633581 C0.152273714,13.0633581 -0.0209730748,12.8303845 0.0020582561,12.5972803 L1.87335389,0.710797869 C1.90802884,0.396250887 2.19681613,0.163146775 2.50876272,0.163146775 L7.09455659,0.163146775 C9.23148024,0.163146775 11.1027759,0.97888065 11.1027759,3.42608227 Z M5.5812702,2.76187912 L5.06152984,2.76187912 C4.8536081,2.76187912 4.71503626,2.87843118 4.69187698,3.07642611 L4.20668361,6.1879614 L5.13087973,6.15298273 C6.6325225,6.15298273 7.67213119,5.80332656 7.67213119,4.05530676 C7.66048757,2.82008989 6.56317261,2.76187912 5.5812702,2.76187912 Z" id="Shape"></path>
        </g>
    </g>
</svg>