<svg width="21" height="16" viewBox="0 0 21 16" fill="none" xmlns="http://www.w3.org/2000/svg">
<path d="M7.90076 14.2706C7.31862 14.2706 7.41754 14.0759 7.21677 13.5848L5.50488 8.59314L18.6822 1.66699" fill="#9399AB"/>
<path d="M7.90039 14.2707C8.34962 14.2707 8.5481 14.0887 8.79885 13.8727L11.1947 11.8086L8.20616 10.2119" fill="#70788E"/>
<path d="M8.20678 10.2126L15.4483 14.9527C16.2747 15.3567 16.8711 15.1476 17.0769 14.273L20.0246 1.96617C20.3264 0.894168 19.5634 0.407959 18.7729 0.725942L1.46411 6.63917C0.282631 7.05903 0.289518 7.64303 1.24875 7.90325L5.69057 9.13154L15.9738 3.38362C16.4593 3.12281 16.9048 3.26303 16.5391 3.55057" fill="white"/>
</svg>
