<svg width="15" height="18" viewBox="0 0 15 18" fill="none" xmlns="http://www.w3.org/2000/svg">
<path d="M8.23944 0H6.76056C6.10329 0 5.56338 0.216797 5.14085 0.650391C4.71831 1.08398 4.50704 1.61719 4.50704 2.25V2.98828H1.47887C1.07981 2.98828 0.733568 3.14062 0.440141 3.44531C0.146714 3.75 0 4.10156 0 4.5V5.23828C0 5.66016 0.146714 6.01758 0.440141 6.31055C0.733568 6.60352 1.07981 6.75 1.47887 6.75H1.5493L2.92254 16.7344C2.94601 17.1094 3.10446 17.4141 3.39789 17.6484C3.69131 17.8828 4.03756 18 4.43662 18H10.5634C10.9624 18 11.3087 17.8828 11.6021 17.6484C11.8955 17.4141 12.054 17.1094 12.0775 16.7344L13.4507 6.75H13.5211C13.9202 6.75 14.2664 6.60352 14.5599 6.31055C14.8533 6.01758 15 5.66016 15 5.23828V4.5C15 4.10156 14.8533 3.75 14.5599 3.44531C14.2664 3.14062 13.9202 2.98828 13.5211 2.98828H10.493V2.25C10.493 1.61719 10.2817 1.08398 9.85916 0.650391C9.43662 0.216797 8.89671 0 8.23944 0ZM5.98592 2.25C5.98592 1.75781 6.24413 1.51172 6.76056 1.51172H8.23944C8.75587 1.51172 9.01408 1.75781 9.01408 2.25V2.98828H5.98592V2.25ZM4.43662 16.4883L4.33099 15.75H10.7394L10.669 16.4883H4.43662ZM10.8803 14.2383H4.11972L3.06338 6.75H11.8662L10.8803 14.2383ZM13.5211 4.5V5.23828H1.47887V4.5H13.5211Z" fill="#A2CF27"/>
</svg>
