<svg width="23" height="18" viewBox="0 0 23 18" fill="none" xmlns="http://www.w3.org/2000/svg">
<path fill-rule="evenodd" clip-rule="evenodd" d="M22.0396 2.94759C21.2301 3.28947 20.3604 3.51957 19.4478 3.62416C20.3793 3.09271 21.095 2.25141 21.4319 1.24931C20.5598 1.74121 19.5939 2.09845 18.5657 2.29096C17.7428 1.45718 16.5694 0.9375 15.2714 0.9375C12.7792 0.9375 10.7579 2.85935 10.7579 5.22897C10.7579 5.56562 10.7975 5.89312 10.8748 6.20721C7.12313 6.02745 3.797 4.31805 1.57122 1.72291C1.18278 2.35699 0.960203 3.09369 0.960203 3.88008C0.960203 5.36886 1.75702 6.68228 2.9677 7.45249C2.22864 7.42961 1.5322 7.23677 0.923766 6.91483V6.96876C0.923766 9.04913 2.48095 10.783 4.54345 11.1777C4.16533 11.2758 3.76658 11.3281 3.35648 11.3281C3.06567 11.3281 2.78242 11.3019 2.50742 11.2512C3.08148 12.9567 4.74867 14.1974 6.72352 14.2321C5.1787 15.3826 3.23239 16.0689 1.11695 16.0689C0.752578 16.0689 0.394047 16.0493 0.0410156 16.0091C2.0382 17.2269 4.41111 17.9375 6.95984 17.9375C15.2614 17.9375 19.8015 11.3973 19.8015 5.72659C19.8015 5.54029 19.797 5.35562 19.7884 5.17095C20.6705 4.56629 21.436 3.80965 22.041 2.94841" fill="#A7D438"/>
</svg>
